<svg xmlns="http://www.w3.org/2000/svg" viewBox="0 0 1200 900" width="1200" height="900">
  <g font-family="Pretendard,'Malgun Gothic',sans-serif">

    <!-- Phone with bottom sheet -->
    <g>
      <rect x="140" y="130" width="340" height="640" rx="34" fill="#FFFFFF" stroke="#DCDEE5" stroke-width="2"/>
      <rect x="258" y="150" width="84" height="8" rx="4" fill="#DCDEE5"/>

      <rect x="168" y="190" width="284" height="26" rx="8" fill="#F3F4F8"/>
      <rect x="168" y="230" width="284" height="70" rx="10" fill="#F3F4F8"/>
      <rect x="168" y="312" width="134" height="60" rx="10" fill="#F3F4F8"/>
      <rect x="312" y="312" width="140" height="60" rx="10" fill="#F3F4F8"/>

      <!-- bottom sheet overlay -->
      <path d="M 140 480 L 140 736 Q 140 770 174 770 L 446 770 Q 480 770 480 736 L 480 480 Q 480 460 460 460 L 160 460 Q 140 460 140 480 Z" fill="#FFFFFF" stroke="#1B45D7" stroke-width="2.5"/>
      <rect x="278" y="474" width="64" height="6" rx="3" fill="#1B45D7" fill-opacity=".4"/>
      <text x="310" y="510" text-anchor="middle" font-family="'JetBrains Mono',monospace" font-size="13" letter-spacing="1.5" fill="#1B45D7">바텀시트 · BOTTOM SHEET</text>

      <rect x="168" y="530" width="284" height="34" rx="8" fill="#F3F4F8"/>
      <rect x="168" y="574" width="284" height="34" rx="8" fill="#F3F4F8"/>
      <rect x="168" y="618" width="284" height="34" rx="8" fill="#F3F4F8"/>
      <rect x="168" y="700" width="284" height="46" rx="23" fill="#1B45D7"/>
      <rect x="206" y="717" width="208" height="12" rx="6" fill="#FFFFFF" fill-opacity=".85"/>
    </g>

    <!-- 풀팝업 card -->
    <g>
      <rect x="640" y="150" width="420" height="250" rx="20" fill="#FFFFFF" stroke="#DCDEE5" stroke-width="2"/>
      <circle cx="1012" cy="182" r="15" fill="#FFFFFF" stroke="#0B0B0C" stroke-width="1.5"/>
      <line x1="1006" y1="176" x2="1018" y2="188" stroke="#0B0B0C" stroke-width="1.6"/>
      <line x1="1018" y1="176" x2="1006" y2="188" stroke="#0B0B0C" stroke-width="1.6"/>
      <rect x="672" y="200" width="180" height="16" rx="6" fill="#0B0B0C" fill-opacity=".8"/>
      <rect x="672" y="234" width="356" height="24" rx="6" fill="#F3F4F8"/>
      <rect x="672" y="270" width="356" height="24" rx="6" fill="#F3F4F8"/>
      <rect x="672" y="306" width="356" height="24" rx="6" fill="#F3F4F8"/>
      <rect x="672" y="352" width="356" height="34" rx="17" fill="#1B45D7"/>
      <text x="1150" y="435" text-anchor="end" font-family="'JetBrains Mono',monospace" font-size="13" letter-spacing="1.5" fill="#71757F">풀팝업 · FULL POPUP</text>
    </g>

    <!-- 캘린더 card -->
    <g>
      <rect x="640" y="470" width="420" height="300" rx="20" fill="#FFFFFF" stroke="#DCDEE5" stroke-width="2"/>
      <rect x="672" y="500" width="356" height="18" rx="6" fill="#0B0B0C" fill-opacity=".8"/>

      <g fill="#DCDEE5">
        <circle cx="700" cy="560" r="10"/><circle cx="748" cy="560" r="10"/><circle cx="796" cy="560" r="10"/><circle cx="844" cy="560" r="10"/><circle cx="892" cy="560" r="10"/><circle cx="940" cy="560" r="10"/><circle cx="988" cy="560" r="10"/>
        <circle cx="700" cy="602" r="10"/><circle cx="748" cy="602" r="10"/><circle cx="796" cy="602" r="10"/><circle cx="844" cy="602" r="10"/><circle cx="892" cy="602" r="10"/><circle cx="940" cy="602" r="10"/><circle cx="988" cy="602" r="10"/>
        <circle cx="700" cy="644" r="10"/><circle cx="748" cy="644" r="10"/><circle cx="892" cy="644" r="10"/><circle cx="940" cy="644" r="10"/><circle cx="988" cy="644" r="10"/>
        <circle cx="700" cy="686" r="10"/><circle cx="748" cy="686" r="10"/><circle cx="796" cy="686" r="10"/><circle cx="844" cy="686" r="10"/><circle cx="892" cy="686" r="10"/>
      </g>
      <circle cx="796" cy="644" r="14" fill="#1B45D7"/>
      <circle cx="844" cy="644" r="14" fill="#1B45D7" fill-opacity=".35"/>

      <text x="1150" y="748" text-anchor="end" font-family="'JetBrains Mono',monospace" font-size="13" letter-spacing="1.5" fill="#71757F">캘린더 · CALENDAR UI</text>
    </g>

  </g>
</svg>
